<svg width="524" height="135" viewBox="0 0 524 135" fill="none" xmlns="http://www.w3.org/2000/svg">
<rect x="0.5" y="93.3391" width="129.498" height="38.1494" fill="white" stroke="black"/>
<rect x="196.247" y="0.986572" width="131.506" height="38.1494" fill="white" stroke="black"/>
<rect x="394.002" y="93.3391" width="129.498" height="38.1494" fill="white" stroke="black"/>
<path d="M197.444 39.688C197.577 39.0878 197.304 38.5165 196.834 38.412L189.171 36.7083C188.701 36.6038 188.211 37.0055 188.078 37.6057C187.944 38.2058 188.217 38.7771 188.688 38.8817L195.499 40.396L193.566 49.0895C193.433 49.6896 193.706 50.2609 194.176 50.3655C194.646 50.47 195.136 50.0682 195.269 49.4681L197.444 39.688ZM131.431 94.2527L197.023 40.4009L196.161 38.5964L130.569 92.4482L131.431 94.2527Z" fill="black"/>
<path d="M394.109 93.9941C394.658 93.9341 395.054 93.4404 394.994 92.8914L394.017 83.9446C393.957 83.3956 393.463 82.9992 392.914 83.0591C392.365 83.1191 391.969 83.6128 392.029 84.1618L392.897 92.1145L384.945 92.9833C384.396 93.0433 383.999 93.537 384.059 94.086C384.119 94.635 384.613 95.0314 385.162 94.9715L394.109 93.9941ZM327.374 40.7797L393.374 93.7797L394.626 92.2203L328.626 39.2203L327.374 40.7797Z" fill="black"/>
<path d="M132.221 70.7126C132.159 70.5876 132.108 70.365 132.069 70.0447C131.565 70.5681 130.963 70.8298 130.264 70.8298C129.639 70.8298 129.125 70.6541 128.723 70.3025C128.325 69.947 128.125 69.4978 128.125 68.9548C128.125 68.2947 128.375 67.783 128.875 67.4197C129.379 67.0525 130.086 66.8689 130.997 66.8689H132.051V66.3708C132.051 65.9919 131.938 65.6912 131.711 65.4685C131.485 65.2419 131.151 65.1287 130.709 65.1287C130.323 65.1287 129.999 65.2263 129.737 65.4216C129.475 65.6169 129.344 65.8533 129.344 66.1306H128.254C128.254 65.8142 128.366 65.5095 128.588 65.2166C128.815 64.9197 129.12 64.6853 129.502 64.5134C129.889 64.3416 130.313 64.2556 130.774 64.2556C131.504 64.2556 132.077 64.4392 132.491 64.8064C132.905 65.1697 133.12 65.6716 133.135 66.3123V69.2302C133.135 69.8123 133.209 70.2751 133.358 70.6189V70.7126H132.221ZM130.422 69.8865C130.762 69.8865 131.084 69.7986 131.389 69.6228C131.694 69.447 131.915 69.2185 132.051 68.9373V67.6365H131.202C129.874 67.6365 129.209 68.0251 129.209 68.8025C129.209 69.1423 129.323 69.408 129.549 69.5994C129.776 69.7908 130.067 69.8865 130.422 69.8865Z" fill="black"/>
<path d="M261.348 131.179C261.735 131.179 262.073 131.062 262.362 130.827C262.651 130.593 262.811 130.3 262.842 129.948H263.868C263.848 130.312 263.723 130.657 263.493 130.985C263.262 131.313 262.954 131.575 262.567 131.771C262.184 131.966 261.778 132.063 261.348 132.063C260.485 132.063 259.797 131.776 259.286 131.202C258.778 130.624 258.524 129.835 258.524 128.835V128.653C258.524 128.036 258.637 127.487 258.864 127.007C259.09 126.526 259.415 126.153 259.836 125.888C260.262 125.622 260.764 125.489 261.342 125.489C262.053 125.489 262.643 125.702 263.112 126.128C263.584 126.554 263.836 127.106 263.868 127.786H262.842C262.811 127.376 262.655 127.04 262.374 126.778C262.096 126.513 261.752 126.38 261.342 126.38C260.792 126.38 260.364 126.579 260.059 126.978C259.758 127.372 259.608 127.944 259.608 128.694V128.899C259.608 129.63 259.758 130.192 260.059 130.587C260.36 130.981 260.79 131.179 261.348 131.179ZM265.678 123.597L265.555 125.753H264.799L264.805 122.946H265.678V123.597Z" fill="black"/>
<path d="M392.663 64.6016C392.663 65.5703 392.44 66.3496 391.995 66.9395C391.549 67.5254 390.952 67.8184 390.202 67.8184C389.401 67.8184 388.782 67.5352 388.344 66.9688L388.292 67.7012H387.295V58.7012H388.379V62.0586C388.817 61.5156 389.42 61.2441 390.19 61.2441C390.959 61.2441 391.563 61.5352 392 62.1172C392.442 62.6992 392.663 63.4961 392.663 64.5078V64.6016ZM391.579 64.4785C391.579 63.7402 391.436 63.1699 391.151 62.7676C390.866 62.3652 390.456 62.1641 389.92 62.1641C389.206 62.1641 388.692 62.4961 388.379 63.1602V65.9023C388.711 66.5664 389.229 66.8984 389.932 66.8984C390.452 66.8984 390.856 66.6973 391.145 66.2949C391.434 65.8926 391.579 65.2871 391.579 64.4785Z" fill="black"/>
<path d="M394.209 113.623C394.6 113.232 394.6 112.599 394.209 112.209L387.845 105.845C387.455 105.454 386.821 105.454 386.431 105.845C386.04 106.235 386.04 106.868 386.431 107.259L392.088 112.916L386.431 118.573C386.04 118.963 386.04 119.596 386.431 119.987C386.821 120.377 387.455 120.377 387.845 119.987L394.209 113.623ZM130.498 113.916H393.502V111.916H130.498V113.916Z" fill="black"/>
<path d="M41.6494 113.086C40.6846 112.809 39.9814 112.469 39.54 112.067C39.1025 111.66 38.8838 111.16 38.8838 110.567C38.8838 109.895 39.1514 109.34 39.6865 108.903C40.2256 108.461 40.9248 108.24 41.7842 108.24C42.3701 108.24 42.8916 108.354 43.3486 108.58C43.8096 108.807 44.165 109.119 44.415 109.518C44.6689 109.916 44.7959 110.352 44.7959 110.824H43.665C43.665 110.309 43.501 109.905 43.1729 109.612C42.8447 109.315 42.3818 109.166 41.7842 109.166C41.2295 109.166 40.7959 109.289 40.4834 109.535C40.1748 109.778 40.0205 110.115 40.0205 110.549C40.0205 110.897 40.167 111.192 40.46 111.434C40.7568 111.672 41.2588 111.891 41.9658 112.09C42.6768 112.289 43.2314 112.51 43.6299 112.752C44.0322 112.99 44.3291 113.27 44.5205 113.59C44.7158 113.91 44.8135 114.287 44.8135 114.721C44.8135 115.412 44.5439 115.967 44.0049 116.385C43.4658 116.799 42.7451 117.006 41.8428 117.006C41.2568 117.006 40.71 116.895 40.2021 116.672C39.6943 116.446 39.3018 116.137 39.0244 115.746C38.751 115.356 38.6143 114.912 38.6143 114.416H39.7451C39.7451 114.932 39.9346 115.34 40.3135 115.641C40.6963 115.938 41.2061 116.086 41.8428 116.086C42.4365 116.086 42.8916 115.965 43.208 115.723C43.5244 115.481 43.6826 115.151 43.6826 114.733C43.6826 114.315 43.5361 113.992 43.2432 113.766C42.9502 113.535 42.4189 113.309 41.6494 113.086ZM47.7139 108.358L50.5029 115.319L53.292 108.358H54.751V116.889H53.626V113.567L53.7314 109.981L50.9307 116.889H50.0693L47.2744 109.998L47.3857 113.567V116.889H46.2607V108.358H47.7139ZM63.2354 115.207C63.2354 114.914 63.124 114.688 62.9014 114.528C62.6826 114.364 62.2979 114.223 61.7471 114.106C61.2002 113.989 60.7646 113.848 60.4404 113.684C60.1201 113.52 59.8818 113.324 59.7256 113.098C59.5732 112.871 59.4971 112.602 59.4971 112.289C59.4971 111.77 59.7158 111.33 60.1533 110.971C60.5947 110.612 61.1572 110.432 61.8408 110.432C62.5596 110.432 63.1416 110.617 63.5869 110.989C64.0361 111.36 64.2607 111.834 64.2607 112.412H63.1709C63.1709 112.115 63.0439 111.86 62.79 111.645C62.54 111.43 62.2236 111.323 61.8408 111.323C61.4463 111.323 61.1377 111.408 60.915 111.58C60.6924 111.752 60.5811 111.977 60.5811 112.254C60.5811 112.516 60.6846 112.713 60.8916 112.846C61.0986 112.979 61.4717 113.106 62.0107 113.227C62.5537 113.348 62.9932 113.492 63.3291 113.66C63.665 113.828 63.9131 114.031 64.0732 114.27C64.2373 114.504 64.3193 114.791 64.3193 115.131C64.3193 115.698 64.0928 116.153 63.6396 116.496C63.1865 116.836 62.5986 117.006 61.876 117.006C61.3682 117.006 60.9189 116.916 60.5283 116.737C60.1377 116.557 59.8311 116.307 59.6084 115.987C59.3896 115.662 59.2803 115.313 59.2803 114.938H60.3643C60.3838 115.301 60.5283 115.59 60.7979 115.805C61.0713 116.016 61.4307 116.121 61.876 116.121C62.2861 116.121 62.6143 116.039 62.8604 115.875C63.1104 115.707 63.2354 115.485 63.2354 115.207ZM67.2021 109.014V110.549H68.3857V111.387H67.2021V115.319C67.2021 115.573 67.2549 115.764 67.3604 115.893C67.4658 116.018 67.6455 116.08 67.8994 116.08C68.0244 116.08 68.1963 116.057 68.415 116.01V116.889C68.1299 116.967 67.8525 117.006 67.583 117.006C67.0986 117.006 66.7334 116.86 66.4873 116.567C66.2412 116.274 66.1182 115.858 66.1182 115.319V111.387H64.9639V110.549H66.1182V109.014H67.2021ZM73.5713 116.889C73.5088 116.764 73.458 116.541 73.4189 116.221C72.915 116.744 72.3135 117.006 71.6143 117.006C70.9893 117.006 70.4756 116.83 70.0732 116.479C69.6748 116.123 69.4756 115.674 69.4756 115.131C69.4756 114.471 69.7256 113.959 70.2256 113.596C70.7295 113.229 71.4365 113.045 72.3467 113.045H73.4014V112.547C73.4014 112.168 73.2881 111.867 73.0615 111.645C72.835 111.418 72.501 111.305 72.0596 111.305C71.6729 111.305 71.3486 111.403 71.0869 111.598C70.8252 111.793 70.6943 112.03 70.6943 112.307H69.6045C69.6045 111.99 69.7158 111.686 69.9385 111.393C70.165 111.096 70.4697 110.862 70.8525 110.69C71.2393 110.518 71.6631 110.432 72.124 110.432C72.8545 110.432 73.4268 110.615 73.8408 110.983C74.2549 111.346 74.4697 111.848 74.4854 112.489V115.406C74.4854 115.989 74.5596 116.451 74.708 116.795V116.889H73.5713ZM71.7725 116.063C72.1123 116.063 72.4346 115.975 72.7393 115.799C73.0439 115.623 73.2646 115.395 73.4014 115.114V113.813H72.5518C71.2236 113.813 70.5596 114.201 70.5596 114.979C70.5596 115.319 70.6729 115.584 70.8994 115.776C71.126 115.967 71.417 116.063 71.7725 116.063ZM77.6553 109.014V110.549H78.8389V111.387H77.6553V115.319C77.6553 115.573 77.708 115.764 77.8135 115.893C77.9189 116.018 78.0986 116.08 78.3525 116.08C78.4775 116.08 78.6494 116.057 78.8682 116.01V116.889C78.583 116.967 78.3057 117.006 78.0361 117.006C77.5518 117.006 77.1865 116.86 76.9404 116.567C76.6943 116.274 76.5713 115.858 76.5713 115.319V111.387H75.417V110.549H76.5713V109.014H77.6553ZM84.0244 116.262C83.6025 116.758 82.9834 117.006 82.167 117.006C81.4912 117.006 80.9756 116.811 80.6201 116.42C80.2686 116.026 80.0908 115.444 80.0869 114.674V110.549H81.1709V114.645C81.1709 115.606 81.5615 116.086 82.3428 116.086C83.1709 116.086 83.7217 115.778 83.9951 115.16V110.549H85.0791V116.889H84.0479L84.0244 116.262ZM90.4229 115.207C90.4229 114.914 90.3115 114.688 90.0889 114.528C89.8701 114.364 89.4854 114.223 88.9346 114.106C88.3877 113.989 87.9521 113.848 87.6279 113.684C87.3076 113.52 87.0693 113.324 86.9131 113.098C86.7607 112.871 86.6846 112.602 86.6846 112.289C86.6846 111.77 86.9033 111.33 87.3408 110.971C87.7822 110.612 88.3447 110.432 89.0283 110.432C89.7471 110.432 90.3291 110.617 90.7744 110.989C91.2236 111.36 91.4482 111.834 91.4482 112.412H90.3584C90.3584 112.115 90.2314 111.86 89.9775 111.645C89.7275 111.43 89.4111 111.323 89.0283 111.323C88.6338 111.323 88.3252 111.408 88.1025 111.58C87.8799 111.752 87.7686 111.977 87.7686 112.254C87.7686 112.516 87.8721 112.713 88.0791 112.846C88.2861 112.979 88.6592 113.106 89.1982 113.227C89.7412 113.348 90.1807 113.492 90.5166 113.66C90.8525 113.828 91.1006 114.031 91.2607 114.27C91.4248 114.504 91.5068 114.791 91.5068 115.131C91.5068 115.698 91.2803 116.153 90.8271 116.496C90.374 116.836 89.7861 117.006 89.0635 117.006C88.5557 117.006 88.1064 116.916 87.7158 116.737C87.3252 116.557 87.0186 116.307 86.7959 115.987C86.5771 115.662 86.4678 115.313 86.4678 114.938H87.5518C87.5713 115.301 87.7158 115.59 87.9854 115.805C88.2588 116.016 88.6182 116.121 89.0635 116.121C89.4736 116.121 89.8018 116.039 90.0479 115.875C90.2979 115.707 90.4229 115.485 90.4229 115.207Z" fill="black"/>
<path d="M248.439 20.7336C247.474 20.4563 246.771 20.1165 246.33 19.7141C245.892 19.3079 245.673 18.8079 245.673 18.2141C245.673 17.5422 245.941 16.9875 246.476 16.55C247.015 16.1086 247.714 15.8879 248.574 15.8879C249.16 15.8879 249.681 16.0012 250.138 16.2278C250.599 16.4543 250.955 16.7668 251.205 17.1653C251.458 17.5637 251.585 17.9993 251.585 18.4719H250.455C250.455 17.9563 250.291 17.552 249.962 17.259C249.634 16.9622 249.171 16.8137 248.574 16.8137C248.019 16.8137 247.585 16.9368 247.273 17.1829C246.964 17.425 246.81 17.7629 246.81 18.1965C246.81 18.5442 246.957 18.8391 247.25 19.0813C247.546 19.3196 248.048 19.5383 248.755 19.7375C249.466 19.9368 250.021 20.1575 250.419 20.3997C250.822 20.6379 251.119 20.9172 251.31 21.2375C251.505 21.5579 251.603 21.9348 251.603 22.3684C251.603 23.0598 251.333 23.6145 250.794 24.0325C250.255 24.4465 249.535 24.6536 248.632 24.6536C248.046 24.6536 247.5 24.5422 246.992 24.3196C246.484 24.093 246.091 23.7844 245.814 23.3938C245.541 23.0032 245.404 22.5598 245.404 22.0637H246.535C246.535 22.5793 246.724 22.9875 247.103 23.2883C247.486 23.5852 247.996 23.7336 248.632 23.7336C249.226 23.7336 249.681 23.6125 249.998 23.3704C250.314 23.1282 250.472 22.7981 250.472 22.3801C250.472 21.9622 250.326 21.6399 250.033 21.4133C249.74 21.1829 249.208 20.9563 248.439 20.7336ZM254.351 16.6614V18.1965H255.535V19.0344H254.351V22.9661C254.351 23.22 254.404 23.4114 254.509 23.5403C254.615 23.6653 254.794 23.7278 255.048 23.7278C255.173 23.7278 255.345 23.7043 255.564 23.6575V24.5364C255.279 24.6145 255.001 24.6536 254.732 24.6536C254.248 24.6536 253.882 24.5071 253.636 24.2141C253.39 23.9211 253.267 23.5051 253.267 22.9661V19.0344H252.113V18.1965H253.267V16.6614H254.351ZM259.871 19.1692C259.707 19.1418 259.529 19.1282 259.337 19.1282C258.626 19.1282 258.144 19.4309 257.89 20.0364V24.5364H256.806V18.1965H257.861L257.878 18.929C258.234 18.3625 258.738 18.0793 259.39 18.0793C259.601 18.0793 259.761 18.1067 259.871 18.1614V19.1692ZM263.386 24.6536C262.527 24.6536 261.828 24.3723 261.289 23.8098C260.75 23.2434 260.48 22.4875 260.48 21.5422V21.343C260.48 20.7141 260.599 20.1536 260.837 19.6614C261.08 19.1653 261.416 18.7786 261.845 18.5012C262.279 18.22 262.748 18.0793 263.251 18.0793C264.076 18.0793 264.716 18.3508 265.173 18.8938C265.63 19.4368 265.859 20.2141 265.859 21.2258V21.677H261.564C261.58 22.302 261.761 22.8079 262.109 23.1946C262.46 23.5774 262.906 23.7688 263.445 23.7688C263.828 23.7688 264.152 23.6907 264.417 23.5344C264.683 23.3782 264.916 23.1711 265.115 22.9133L265.777 23.429C265.246 24.2454 264.449 24.6536 263.386 24.6536ZM263.251 18.97C262.814 18.97 262.447 19.1301 262.15 19.4504C261.853 19.7668 261.669 20.2122 261.599 20.7864H264.775V20.7043C264.744 20.1536 264.595 19.7278 264.33 19.427C264.064 19.1223 263.705 18.97 263.251 18.97ZM270.81 22.8547C270.81 22.5618 270.699 22.3352 270.476 22.175C270.257 22.011 269.873 21.8704 269.322 21.7532C268.775 21.636 268.339 21.4954 268.015 21.3313C267.695 21.1672 267.457 20.9719 267.3 20.7454C267.148 20.5188 267.072 20.2493 267.072 19.9368C267.072 19.4172 267.291 18.9778 267.728 18.6184C268.169 18.259 268.732 18.0793 269.416 18.0793C270.134 18.0793 270.716 18.2649 271.162 18.636C271.611 19.0071 271.835 19.4817 271.835 20.0598H270.746C270.746 19.7629 270.619 19.5071 270.365 19.2922C270.115 19.0774 269.798 18.97 269.416 18.97C269.021 18.97 268.712 19.0559 268.49 19.2278C268.267 19.3997 268.156 19.6243 268.156 19.9016C268.156 20.1633 268.259 20.3606 268.466 20.4934C268.673 20.6262 269.046 20.7532 269.585 20.8743C270.128 20.9954 270.568 21.1399 270.904 21.3079C271.24 21.4758 271.488 21.679 271.648 21.9172C271.812 22.1516 271.894 22.4387 271.894 22.7786C271.894 23.345 271.667 23.8 271.214 24.1438C270.761 24.4836 270.173 24.6536 269.451 24.6536C268.943 24.6536 268.494 24.5637 268.103 24.384C267.712 24.2043 267.406 23.9543 267.183 23.634C266.964 23.3098 266.855 22.9602 266.855 22.5852H267.939C267.958 22.9485 268.103 23.2375 268.373 23.4524C268.646 23.6633 269.005 23.7688 269.451 23.7688C269.861 23.7688 270.189 23.6868 270.435 23.5227C270.685 23.3547 270.81 23.1321 270.81 22.8547ZM276.998 22.8547C276.998 22.5618 276.886 22.3352 276.664 22.175C276.445 22.011 276.06 21.8704 275.509 21.7532C274.962 21.636 274.527 21.4954 274.203 21.3313C273.882 21.1672 273.644 20.9719 273.488 20.7454C273.335 20.5188 273.259 20.2493 273.259 19.9368C273.259 19.4172 273.478 18.9778 273.916 18.6184C274.357 18.259 274.919 18.0793 275.603 18.0793C276.322 18.0793 276.904 18.2649 277.349 18.636C277.798 19.0071 278.023 19.4817 278.023 20.0598H276.933C276.933 19.7629 276.806 19.5071 276.552 19.2922C276.302 19.0774 275.986 18.97 275.603 18.97C275.208 18.97 274.9 19.0559 274.677 19.2278C274.455 19.3997 274.343 19.6243 274.343 19.9016C274.343 20.1633 274.447 20.3606 274.654 20.4934C274.861 20.6262 275.234 20.7532 275.773 20.8743C276.316 20.9954 276.755 21.1399 277.091 21.3079C277.427 21.4758 277.675 21.679 277.835 21.9172C278 22.1516 278.082 22.4387 278.082 22.7786C278.082 23.345 277.855 23.8 277.402 24.1438C276.949 24.4836 276.361 24.6536 275.638 24.6536C275.13 24.6536 274.681 24.5637 274.291 24.384C273.9 24.2043 273.593 23.9543 273.371 23.634C273.152 23.3098 273.042 22.9602 273.042 22.5852H274.126C274.146 22.9485 274.291 23.2375 274.56 23.4524C274.833 23.6633 275.193 23.7688 275.638 23.7688C276.048 23.7688 276.376 23.6868 276.623 23.5227C276.873 23.3547 276.998 23.1321 276.998 22.8547Z" fill="black"/>
<path d="M414.099 116.889H412.968V112.946H408.667V116.889H407.542V108.358H408.667V112.026H412.968V108.358H414.099V116.889ZM419.841 116.889C419.778 116.764 419.728 116.541 419.688 116.221C419.185 116.744 418.583 117.006 417.884 117.006C417.259 117.006 416.745 116.83 416.343 116.479C415.944 116.123 415.745 115.674 415.745 115.131C415.745 114.471 415.995 113.959 416.495 113.596C416.999 113.229 417.706 113.045 418.616 113.045H419.671V112.547C419.671 112.168 419.558 111.867 419.331 111.645C419.104 111.418 418.771 111.305 418.329 111.305C417.942 111.305 417.618 111.403 417.356 111.598C417.095 111.793 416.964 112.03 416.964 112.307H415.874C415.874 111.99 415.985 111.686 416.208 111.393C416.435 111.096 416.739 110.862 417.122 110.69C417.509 110.518 417.933 110.432 418.394 110.432C419.124 110.432 419.696 110.615 420.11 110.983C420.524 111.346 420.739 111.848 420.755 112.489V115.406C420.755 115.989 420.829 116.451 420.978 116.795V116.889H419.841ZM418.042 116.063C418.382 116.063 418.704 115.975 419.009 115.799C419.313 115.623 419.534 115.395 419.671 115.114V113.813H418.821C417.493 113.813 416.829 114.201 416.829 114.979C416.829 115.319 416.942 115.584 417.169 115.776C417.396 115.967 417.687 116.063 418.042 116.063ZM423.474 116.004H427.183V116.889H422.149V116.092L425.647 111.446H422.202V110.549H427.007V111.317L423.474 116.004ZM432.321 116.889C432.259 116.764 432.208 116.541 432.169 116.221C431.665 116.744 431.063 117.006 430.364 117.006C429.739 117.006 429.226 116.83 428.823 116.479C428.425 116.123 428.226 115.674 428.226 115.131C428.226 114.471 428.476 113.959 428.976 113.596C429.479 113.229 430.187 113.045 431.097 113.045H432.151V112.547C432.151 112.168 432.038 111.867 431.812 111.645C431.585 111.418 431.251 111.305 430.81 111.305C430.423 111.305 430.099 111.403 429.837 111.598C429.575 111.793 429.444 112.03 429.444 112.307H428.354C428.354 111.99 428.466 111.686 428.688 111.393C428.915 111.096 429.22 110.862 429.603 110.69C429.989 110.518 430.413 110.432 430.874 110.432C431.604 110.432 432.177 110.615 432.591 110.983C433.005 111.346 433.22 111.848 433.235 112.489V115.406C433.235 115.989 433.31 116.451 433.458 116.795V116.889H432.321ZM430.522 116.063C430.862 116.063 431.185 115.975 431.489 115.799C431.794 115.623 432.015 115.395 432.151 115.114V113.813H431.302C429.974 113.813 429.31 114.201 429.31 114.979C429.31 115.319 429.423 115.584 429.649 115.776C429.876 115.967 430.167 116.063 430.522 116.063ZM437.999 111.522C437.835 111.494 437.657 111.481 437.466 111.481C436.755 111.481 436.272 111.783 436.019 112.389V116.889H434.935V110.549H435.989L436.007 111.281C436.362 110.715 436.866 110.432 437.519 110.432C437.729 110.432 437.89 110.459 437.999 110.514V111.522ZM438.62 113.666C438.62 112.694 438.851 111.912 439.312 111.323C439.772 110.729 440.376 110.432 441.122 110.432C441.864 110.432 442.452 110.686 442.886 111.194V107.889H443.97V116.889H442.974L442.921 116.209C442.487 116.74 441.884 117.006 441.11 117.006C440.376 117.006 439.776 116.705 439.312 116.104C438.851 115.502 438.62 114.717 438.62 113.748V113.666ZM439.704 113.789C439.704 114.508 439.853 115.071 440.149 115.477C440.446 115.883 440.856 116.086 441.38 116.086C442.067 116.086 442.569 115.778 442.886 115.16V112.248C442.562 111.651 442.063 111.352 441.392 111.352C440.86 111.352 440.446 111.557 440.149 111.967C439.853 112.377 439.704 112.985 439.704 113.789ZM445.37 113.66C445.37 113.039 445.491 112.481 445.733 111.985C445.979 111.489 446.319 111.106 446.753 110.836C447.19 110.567 447.688 110.432 448.247 110.432C449.11 110.432 449.808 110.731 450.339 111.328C450.874 111.926 451.142 112.721 451.142 113.713V113.789C451.142 114.406 451.022 114.961 450.784 115.453C450.55 115.942 450.212 116.323 449.771 116.596C449.333 116.869 448.829 117.006 448.259 117.006C447.399 117.006 446.702 116.707 446.167 116.11C445.636 115.512 445.37 114.721 445.37 113.737V113.66ZM446.46 113.789C446.46 114.492 446.622 115.057 446.946 115.483C447.274 115.908 447.712 116.121 448.259 116.121C448.81 116.121 449.247 115.906 449.571 115.477C449.896 115.043 450.058 114.438 450.058 113.66C450.058 112.965 449.892 112.403 449.56 111.973C449.231 111.539 448.794 111.323 448.247 111.323C447.712 111.323 447.28 111.535 446.952 111.961C446.624 112.387 446.46 112.996 446.46 113.789ZM456.415 116.262C455.993 116.758 455.374 117.006 454.558 117.006C453.882 117.006 453.366 116.811 453.011 116.42C452.659 116.026 452.481 115.444 452.478 114.674V110.549H453.562V114.645C453.562 115.606 453.952 116.086 454.733 116.086C455.562 116.086 456.112 115.778 456.386 115.16V110.549H457.47V116.889H456.438L456.415 116.262ZM462.813 115.207C462.813 114.914 462.702 114.688 462.479 114.528C462.261 114.364 461.876 114.223 461.325 114.106C460.778 113.989 460.343 113.848 460.019 113.684C459.698 113.52 459.46 113.324 459.304 113.098C459.151 112.871 459.075 112.602 459.075 112.289C459.075 111.77 459.294 111.33 459.731 110.971C460.173 110.612 460.735 110.432 461.419 110.432C462.138 110.432 462.72 110.617 463.165 110.989C463.614 111.36 463.839 111.834 463.839 112.412H462.749C462.749 112.115 462.622 111.86 462.368 111.645C462.118 111.43 461.802 111.323 461.419 111.323C461.024 111.323 460.716 111.408 460.493 111.58C460.271 111.752 460.159 111.977 460.159 112.254C460.159 112.516 460.263 112.713 460.47 112.846C460.677 112.979 461.05 113.106 461.589 113.227C462.132 113.348 462.571 113.492 462.907 113.66C463.243 113.828 463.491 114.031 463.651 114.27C463.815 114.504 463.897 114.791 463.897 115.131C463.897 115.698 463.671 116.153 463.218 116.496C462.765 116.836 462.177 117.006 461.454 117.006C460.946 117.006 460.497 116.916 460.106 116.737C459.716 116.557 459.409 116.307 459.187 115.987C458.968 115.662 458.858 115.313 458.858 114.938H459.942C459.962 115.301 460.106 115.59 460.376 115.805C460.649 116.016 461.009 116.121 461.454 116.121C461.864 116.121 462.192 116.039 462.438 115.875C462.688 115.707 462.813 115.485 462.813 115.207ZM468.022 113.666C468.022 112.694 468.253 111.912 468.714 111.323C469.175 110.729 469.778 110.432 470.524 110.432C471.267 110.432 471.854 110.686 472.288 111.194V107.889H473.372V116.889H472.376L472.323 116.209C471.89 116.74 471.286 117.006 470.513 117.006C469.778 117.006 469.179 116.705 468.714 116.104C468.253 115.502 468.022 114.717 468.022 113.748V113.666ZM469.106 113.789C469.106 114.508 469.255 115.071 469.552 115.477C469.849 115.883 470.259 116.086 470.782 116.086C471.47 116.086 471.972 115.778 472.288 115.16V112.248C471.964 111.651 471.466 111.352 470.794 111.352C470.263 111.352 469.849 111.557 469.552 111.967C469.255 112.377 469.106 112.985 469.106 113.789ZM478.124 111.522C477.96 111.494 477.782 111.481 477.591 111.481C476.88 111.481 476.397 111.783 476.144 112.389V116.889H475.06V110.549H476.114L476.132 111.281C476.487 110.715 476.991 110.432 477.644 110.432C477.854 110.432 478.015 110.459 478.124 110.514V111.522ZM480.304 116.889H479.22V110.549H480.304V116.889ZM479.132 108.867C479.132 108.692 479.185 108.543 479.29 108.422C479.399 108.301 479.56 108.24 479.771 108.24C479.981 108.24 480.142 108.301 480.251 108.422C480.36 108.543 480.415 108.692 480.415 108.867C480.415 109.043 480.36 109.19 480.251 109.307C480.142 109.424 479.981 109.483 479.771 109.483C479.56 109.483 479.399 109.424 479.29 109.307C479.185 109.19 479.132 109.043 479.132 108.867ZM483.069 110.549L483.104 111.346C483.589 110.737 484.222 110.432 485.003 110.432C486.343 110.432 487.019 111.188 487.03 112.699V116.889H485.946V112.694C485.942 112.237 485.837 111.899 485.63 111.68C485.427 111.461 485.108 111.352 484.675 111.352C484.323 111.352 484.015 111.446 483.749 111.633C483.483 111.821 483.276 112.067 483.128 112.371V116.889H482.044V110.549H483.069ZM490.435 113.953L489.755 114.662V116.889H488.671V107.889H489.755V113.332L490.335 112.635L492.31 110.549H493.628L491.161 113.198L493.915 116.889H492.644L490.435 113.953ZM495.925 116.889H494.841V110.549H495.925V116.889ZM494.753 108.867C494.753 108.692 494.806 108.543 494.911 108.422C495.021 108.301 495.181 108.24 495.392 108.24C495.603 108.24 495.763 108.301 495.872 108.422C495.981 108.543 496.036 108.692 496.036 108.867C496.036 109.043 495.981 109.19 495.872 109.307C495.763 109.424 495.603 109.483 495.392 109.483C495.181 109.483 495.021 109.424 494.911 109.307C494.806 109.19 494.753 109.043 494.753 108.867ZM498.69 110.549L498.726 111.346C499.21 110.737 499.843 110.432 500.624 110.432C501.964 110.432 502.64 111.188 502.651 112.699V116.889H501.567V112.694C501.563 112.237 501.458 111.899 501.251 111.68C501.048 111.461 500.729 111.352 500.296 111.352C499.944 111.352 499.636 111.446 499.37 111.633C499.104 111.821 498.897 112.067 498.749 112.371V116.889H497.665V110.549H498.69ZM504.028 113.666C504.028 112.678 504.257 111.893 504.714 111.311C505.171 110.725 505.776 110.432 506.53 110.432C507.304 110.432 507.907 110.705 508.341 111.252L508.394 110.549H509.384V116.737C509.384 117.557 509.14 118.203 508.651 118.676C508.167 119.149 507.515 119.385 506.694 119.385C506.237 119.385 505.79 119.287 505.353 119.092C504.915 118.897 504.581 118.629 504.351 118.289L504.913 117.639C505.378 118.213 505.946 118.5 506.618 118.5C507.146 118.5 507.556 118.352 507.849 118.055C508.146 117.758 508.294 117.34 508.294 116.801V116.256C507.86 116.756 507.269 117.006 506.519 117.006C505.776 117.006 505.175 116.707 504.714 116.11C504.257 115.512 504.028 114.698 504.028 113.666ZM505.118 113.789C505.118 114.504 505.265 115.067 505.558 115.477C505.851 115.883 506.261 116.086 506.788 116.086C507.472 116.086 507.974 115.776 508.294 115.155V112.26C507.962 111.655 507.464 111.352 506.8 111.352C506.272 111.352 505.86 111.557 505.563 111.967C505.267 112.377 505.118 112.985 505.118 113.789Z" fill="black"/>
</svg>
